Daredevil - Director's Cut (2003) [BDRip720p][Nautilus-BT]
Join www.nautilus-bt.org

[img]http://img207.imageshack.us/img207/92/displaymediaphp.jpg[/img]

Link IMDb : http://www.imdb.com/title/tt0287978/

A man blinded by toxic waste which also enhanced his remaining senses fights crime as an acrobatic martial arts superhero.


Italian title : Daredevil
Original title : Daredevil
Release date : 2003
Genre : action - superheroes
Country : USA
Directed by : Mark Steven Johnson
Written by : Mark Steven Johnson
Based on : Daredevil by Stan Lee - Bill Everett


Languages : Italian - English
Subtitle : Italian - English
Subtitle forced : Italian
Chapters : yes


[img]http://img843.imageshack.us/img843/8253/daredevilquantanalyzer.png[/img]

General
Complete name                    : Daredevil - Director's Cut (2003) [BDRip720p Ita-Eng] by Pitt@Sk8.mkv
Format                           : Matroska
File size                        : 4.38 GiB
Duration                         : 2h 13mn
Overall bit rate                 : 4 707 Kbps
Encoded date                     : UTC 2011-01-22 14:57:41
Writing application              : mkvmerge v4.4.0 ('Die Wiederkehr') built on Oct 31 2010 21:52:48
Writing library                  : libebml v1.0.0 + libmatroska v1.0.0

Video
ID                               : 1
Format                           : AVC
Format/Info                      : Advanced Video Codec
Format profile                   : High@L4.1
Format settings, CABAC           : Yes
Format settings, ReFrames        : 3 frames
Muxing mode                      : Container profile=Unknown@4.1
Codec ID                         : V_MPEG4/ISO/AVC
Duration                         : 2h 13mn
Bit rate mode                    : Variable
Bit rate                         : 3 838 Kbps
Maximum bit rate                 : 40.0 Mbps
Width                            : 1 280 pixels
Height                           : 542 pixels
Display aspect ratio             : 2.35:1
Frame rate                       : 23.976 fps
Color space                      : YUV
Chroma subsampling               : 4:2:0
Bit depth                        : 8 bits
Scan type                        : Progressive
Bits/(Pixel*Frame)               : 0.231
Stream size                      : 3.49 GiB (80%)
Title                            : BDRip720p by Pitt@Sk8
Writing library                  : x264 core 112 r1867 22bfd31
Encoding settings                : cabac=1 / ref=3 / deblock=1:0:0 / analyse=0x3:0x133 / me=hex / subme=7 / psy=1 / psy_rd=1.00:0.00 / mixed_ref=1 / me_range=16 / chroma_me=1 / trellis=1 / 8x8dct=1 / cqm=0 / deadzone=21,11 / fast_pskip=1 / chroma_qp_offset=-2 / threads=6 / sliced_threads=0 / slices=4 / nr=0 / decimate=1 / interlaced=0 / constrained_intra=0 / bframes=3 / b_pyramid=1 / b_adapt=1 / b_bias=0 / direct=1 / weightb=1 / open_gop=2 / weightp=2 / keyint=240 / keyint_min=23 / scenecut=40 / intra_refresh=0 / rc_lookahead=40 / rc=2pass / mbtree=1 / bitrate=3838 / ratetol=1.0 / qcomp=0.60 / qpmin=10 / qpmax=51 / qpstep=4 / cplxblur=20.0 / qblur=0.5 / vbv_maxrate=40000 / vbv_bufsize=40000 / nal_hrd=vbr / ip_ratio=1.40 / aq=1:1.00

Audio #1
ID                               : 2
Format                           : AC-3
Format/Info                      : Audio Coding 3
Mode extension                   : CM (complete main)
Codec ID                         : A_AC3
Duration                         : 2h 13mn
Bit rate mode                    : Constant
Bit rate                         : 640 Kbps
Channel(s)                       : 6 channels
Channel positions                : Front: L C R, Side: L R, LFE
Sampling rate                    : 48.0 KHz
Bit depth                        : 16 bits
Stream size                      : 609 MiB (14%)
Title                            : Italiano AC3 5.1 640 kbps - Pitt@Sk8
Language                         : Italian

Audio #2
ID                               : 3
Format                           : AC-3
Format/Info                      : Audio Coding 3
Mode extension                   : CM (complete main)
Codec ID                         : A_AC3
Duration                         : 2h 13mn
Bit rate mode                    : Constant
Bit rate                         : 224 Kbps
Channel(s)                       : 6 channels
Channel positions                : Front: L C R, Side: L R, LFE
Sampling rate                    : 48.0 KHz
Bit depth                        : 16 bits
Stream size                      : 213 MiB (5%)
Title                            : English AC3 5.1 224 kbps - Pitt@Sk8
Language                         : English

Text #1
ID                               : 4
Format                           : VobSub
Codec ID                         : S_VOBSUB
Codec ID/Info                    : The same subtitle format used on DVDs
Title                            : Cartelli - Italiano
Language                         : Italian

Text #2
ID                               : 5
Format                           : VobSub
Codec ID                         : S_VOBSUB
Codec ID/Info                    : The same subtitle format used on DVDs
Title                            : Sottotitoli - Italiano
Language                         : Italian

Text #3
ID                               : 6
Format                           : VobSub
Codec ID                         : S_VOBSUB
Codec ID/Info                    : The same subtitle format used on DVDs
Title                            : Subtitle English
Language                         : English

Menu
00:00:00.000                     : en:Capitolo 01- Pitt@Sk8
00:02:24.227                     : en:Capitolo 02- Pitt@Sk8
00:05:18.568                     : en:Capitolo 03- Pitt@Sk8
00:08:13.368                     : en:Capitolo 04- Pitt@Sk8
00:12:18.863                     : en:Capitolo 05- Pitt@Sk8
00:15:43.526                     : en:Capitolo 06- Pitt@Sk8
00:20:38.070                     : en:Capitolo 07- Pitt@Sk8
00:24:09.823                     : en:Capitolo 08- Pitt@Sk8
00:32:05.924                     : en:Capitolo 09- Pitt@Sk8
00:33:13.909                     : en:Capitolo 10- Pitt@Sk8
00:37:27.454                     : en:Capitolo 11- Pitt@Sk8
00:39:41.170                     : en:Capitolo 12- Pitt@Sk8
00:41:37.662                     : en:Capitolo 13- Pitt@Sk8
00:45:07.288                     : en:Capitolo 14- Pitt@Sk8
00:47:49.825                     : en:Capitolo 15- Pitt@Sk8
00:49:46.525                     : en:Capitolo 16- Pitt@Sk8
00:53:11.814                     : en:Capitolo 17- Pitt@Sk8
00:57:23.190                     : en:Capitolo 18- Pitt@Sk8
00:59:44.998                     : en:Capitolo 19- Pitt@Sk8
01:04:19.773                     : en:Capitolo 20- Pitt@Sk8
01:06:27.066                     : en:Capitolo 21- Pitt@Sk8
01:10:54.375                     : en:Capitolo 22- Pitt@Sk8
01:18:07.099                     : en:Capitolo 23- Pitt@Sk8
01:22:25.858                     : en:Capitolo 24- Pitt@Sk8
01:23:59.368                     : en:Capitolo 25- Pitt@Sk8
01:25:54.816                     : en:Capitolo 26- Pitt@Sk8
01:28:39.731                     : en:Capitolo 27- Pitt@Sk8
01:30:09.738                     : en:Capitolo 28- Pitt@Sk8
01:32:22.746                     : en:Capitolo 29- Pitt@Sk8
01:33:39.072                     : en:Capitolo 30- Pitt@Sk8
01:36:30.618                     : en:Capitolo 31- Pitt@Sk8
01:40:31.651                     : en:Capitolo 32- Pitt@Sk8
01:44:53.120                     : en:Capitolo 33- Pitt@Sk8
01:49:03.412                     : en:Capitolo 34- Pitt@Sk8
01:50:29.581                     : en:Capitolo 35- Pitt@Sk8
01:52:29.409                     : en:Capitolo 36- Pitt@Sk8
01:53:37.728                     : en:Capitolo 37- Pitt@Sk8
01:59:41.883                     : en:Capitolo 38- Pitt@Sk8
02:00:14.457                     : en:Capitolo 39- Pitt@Sk8
02:02:04.734                     : en:Capitolo 40- Pitt@Sk8
02:03:32.322                     : en:Capitolo 41- Pitt@Sk8
02:04:33.675                     : en:Capitolo 42- Pitt@Sk8
02:05:22.515                     : en:Capitolo 43- Pitt@Sk8
02:06:49.352                     : en:Capitolo 44- Pitt@Sk8


[img]http://img269.imageshack.us/img269/2356/scut2003bdrip720pitaeng.jpg[/img]

[img]http://img716.imageshack.us/img716/2356/scut2003bdrip720pitaeng.jpg[/img]

[img]http://img814.imageshack.us/img814/2356/scut2003bdrip720pitaeng.jpg[/img]

[img]http://img211.imageshack.us/img211/2356/scut2003bdrip720pitaeng.jpg[/img]

[img]http://img248.imageshack.us/img248/2356/scut2003bdrip720pitaeng.jpg[/img]

[img]http://img211.imageshack.us/img211/3609/scut2003bdrip720pitaengn.jpg[/img]

Join www.nautilus-bt.org
